<svg xmlns="http://www.w3.org/2000/svg" viewBox="214.855 114.9 120.3 136.5">
  <path d="M303.80455,131.76683l-28.94786,-16.76683l-28.94786,16.76683l28.94786,16.62352zM331.03273,147.38721l-19.63295,-11.32119l-36.54309,21.06602l-36.54309,-21.06602l-19.63295,11.32119l56.17604,32.53051zM274.8567,188.5161l-59.902,-34.5368v64.77441l24.64867,14.18732v-7.45193c-5.15903,-1.57637 -8.88499,-6.44878 -8.88499,-12.18103c0,-7.022 5.73225,-12.75425 12.75425,-12.75425c7.022,0 12.75425,5.73225 12.75425,12.75425c0,5.73225 -3.72596,10.46135 -8.88499,12.18103v11.75111l23.93214,13.75739v-29.8077l29.951,-17.48336c-0.28661,-1.00314 -0.42992,-2.00629 -0.42992,-3.15274c0,-7.022 5.73225,-12.75425 12.75425,-12.75425c7.022,0 12.75425,5.73225 12.75425,12.75425c0,7.022 -5.73225,12.75425 -12.75425,12.75425c-3.15274,0 -6.16217,-1.14645 -8.31176,-3.15274l-26.36835,15.47707v25.65181l56.17604,-32.38721v-64.77441zM318.56509,200.69713c0,-2.86613 -2.2929,-5.15903 -5.15903,-5.15903c-2.86613,0 -5.15903,2.2929 -5.15903,5.15903c0,2.86613 2.2929,5.15903 5.15903,5.15903c2.86613,0 5.15903,-2.4362 5.15903,-5.15903zM243.32933,208.29236c-2.86613,0 -5.15903,2.2929 -5.15903,5.15903c0,2.86613 2.2929,5.15903 5.15903,5.15903c2.86613,0 5.15903,-2.2929 5.15903,-5.15903c0,-2.86613 -2.2929,-5.15903 -5.15903,-5.15903z
" stroke="#FF0000" stroke-width="0.1" fill="#ffb4be"/>
</svg>